<svg xmlns="http://www.w3.org/2000/svg" width="51.671" height="49.39" viewBox="0 0 51.671 49.39">
  <g id="camp-tent" transform="translate(-68.57 112)">
    <path id="Path_4260" data-name="Path 4260" d="M3.328,22.526h0L24.65,7.354V.871A.871.871,0,0,1,26.392.858h7.3v5.8h-7.3v.69L48.359,22.522h0l.013.008,0,0,.008,0,.013.008h0l.017.013.008,0,.025.017,0,0,.017.013h0l.013.008,0,0,.008,0,.008.008h0l.013.008,0,0,.008,0,.008.008h0l.008.008,0,0,.008.008.008.008h0l.008.008,0,0,.013.017v0l.008.013,0,0,.008.008.008.008v0l.008.013,0,0,0,.008,0,.008v0l.008.013v0l0,.008,0,.008,0,0,.008.013v0l0,.008,0,.008v0l.008.013v0l0,.008,0,.008v0l.008.013v0l0,.013,0,.008v0l0,.013v0l0,.013,0,.008v0l0,.013h0l.008.021v0l0,.013h0l0,.013,0,.008v0l0,.013h0l0,.013V23.1l0,.013h0l0,.013v.013l0,.017h0V23.2h0v.046h0V47.627h2.318c.61,0,.581.4.581.879s.029.884-.581.884H.58c-.61,0-.581-.4-.581-.884s-.029-.879.581-.879H2.9V23.233h0v-.042h0v-.025l0-.013h0l0-.021v0l0-.013h0l0-.013,0-.008v0l0-.013v0l0-.013,0-.008v0l0-.013v0l0-.013,0-.017v0l0-.013v0l0-.008,0-.008v0l0-.013v0l0-.008,0-.008v0l0-.013v0l0-.008,0-.008v0l.008-.013,0,0L3,22.85H3l.008-.013,0,0,0-.008.008-.013h0l.008-.013,0,0,0-.008.008-.008h0l.017-.017,0,0,.013-.017h0l.008-.013,0,0,0,0,.008-.008h0l.008-.008,0,0,0,0,.008-.008h0l.017-.017,0,0,.008-.008h0l.008-.008.008-.008.008-.008h0l.017-.013,0,0,.013-.008h0l.017-.013,0,0,.013-.008h0l.008-.008.008,0,0,0,.013-.008h0l.008,0,.021-.025ZM31.5,47.614a35.3,35.3,0,0,1-4.59-10.586c-.446-1.653-.82-3.357-1.14-5.082a51.334,51.334,0,0,1-1.186,6.778,25.247,25.247,0,0,1-3.917,8.89H31.5ZM47.038,24.163H26.4l.013.088.013.109.013.105.013.093.017.122.008.08.017.135.008.063.021.151,0,.046.021.164,0,.034.025.181,0,.017.025.2h0l.025.2v.013l.025.185,0,.029.021.168,0,.042.021.156.008.059.017.139.008.076.017.122.013.088.017.109.013.105.013.093.017.118.013.076.021.135.008.063.021.151.008.046.025.164,0,.034.025.181,0,.017.029.194h0l.029.2v.013l.029.181,0,.029.025.168.008.042.025.151.008.059.021.139.013.076.021.122.013.088.017.105.017.105.017.093.021.118.013.076.021.135.008.063.025.147.008.046.029.164,0,.029.034.177,0,.017.034.194h0l.034.194,0,.013.034.181,0,.029.029.164.008.042.029.151.013.059.025.135.013.072.025.118.017.088.021.105.021.1.017.088.025.118.038.194,0,.013.013.059.029.147.008.046.034.16.008.029.038.177,0,.017.042.189h0l.042.189,0,.013.038.177.008.029.038.16.008.042.034.147.013.059.029.13.017.072.029.118.021.088.025.1.025.1.021.088,0,.017.042.168.034.13.013.059.008.038.038.151.042.156.008.029.046.173,0,.013.042.194a32.45,32.45,0,0,0,4.977,10.952H47.038V24.163Zm-22.526,0H4.661V47.522H18.487A21.952,21.952,0,0,0,22.875,38.3l.046-.185,0-.008.042-.177,0-.017.042-.168.008-.029.038-.16.008-.038.034-.151.013-.046.008-.046.034-.151v0l.029-.135.013-.067.025-.126.017-.08.025-.118.017-.088,0-.029.038-.177.029-.16.008-.046L23.38,36V35.99l.034-.168.013-.059.029-.147,0-.013.025-.143L23.5,35.4l.025-.151.008-.05.008-.055.025-.151.029-.173,0-.029.029-.185,0-.021.034-.2v-.008l.034-.206h0l.034-.206v-.013l.029-.2,0-.021.025-.189,0-.034.025-.181,0-.042.021-.168.008-.055.021-.16v-.013l.05-.391,0-.05.021-.189v-.008l.013-.1.013-.118.013-.114L24,31.812l.013-.122.013-.1.017-.135.008-.088v0l.025-.223.017-.16.008-.067V30.9l.021-.206.017-.185,0-.042c.013-.151.029-.3.042-.459l.021-.223v-.008l.021-.231v0l.017-.231V29.3l.017-.219v-.025l.017-.21c.021-.316.046-.631.063-.951l0-.088.008-.156.025-.484v0l.008-.126.021-.105.025-.484v-.017l.021-.488.008-.189,0-.059.008-.206v-.046l.008-.219v-.034l.008-.231v-.021l.008-.244V24.68l.008-.517Z" transform="translate(68.57 -112)" fill="#fa8c00"/>
  </g>
</svg>
