<svg xmlns="http://www.w3.org/2000/svg" width="11.948" height="6.191" viewBox="0 0 11.948 6.191">
  <path id="car-door" d="M.72,2.516c-.807-.41-.715-.867.1-.82L1,2.042,1.373.875C1.52.417,1.762,0,2.248,0H6.477A.891.891,0,0,1,7.29.681.961.961,0,0,1,7.654.65h2.411a1.388,1.388,0,0,1,.9.226,1.229,1.229,0,0,1,.259.25,3.174,3.174,0,0,1,.33.6l.311.648a.246.246,0,0,1,.024.257l-.245.8c-.019.044-.058.062-.125.049a1.022,1.022,0,0,0-1.128.875c-.006.052,0,.119-.043.15a.144.144,0,0,1-.106.015h-1.8c-.01.264-.029.567-.051.92v.486a.273.273,0,0,1-.273.272H6.956a.273.273,0,0,1-.273-.272V5.7H1.74v.219a.274.274,0,0,1-.273.272H.3a.273.273,0,0,1-.272-.272V5.29a.292.292,0,0,1,0-.042C-.058,4.118-.182,3.1.717,2.516ZM8.411,3.64H8.268a.082.082,0,0,0-.083.1.1.1,0,0,0,.1.1h1.934a.081.081,0,0,0,.082-.1h0a.1.1,0,0,0-.1-.1ZM8.185,3.738ZM7.68,1.07h2.68a.72.72,0,0,1,.465.319l.535,1.095.011.1h-3.3Zm3.151,1.866h.522a.1.1,0,0,1,.1.1h0a.081.081,0,0,1-.082.092h-.522a.1.1,0,0,1-.1-.092h0a.081.081,0,0,1,.082-.1Zm-8.623.921-1.037-.13C.928,3.695.863,3.8.945,4.012l.112.271a.4.4,0,0,0,.14.157.469.469,0,0,0,.231.063l.922.008c.223,0,.319-.089.249-.292a.5.5,0,0,0-.39-.363Zm4.013,0,1.034-.13c.244-.027.31.076.227.286l-.112.271a.4.4,0,0,1-.14.157A.469.469,0,0,1,7,4.5l-.922.008c-.223,0-.319-.089-.249-.292a.5.5,0,0,1,.389-.361ZM1.386,2.294H7.22L6.938,1.127c-.077-.356-.3-.665-.665-.665H2.4c-.366,0-.553.317-.666.665L1.386,2.294Z" transform="translate(0.03)" fill="#fa8c00" fill-rule="evenodd"/>
</svg>
