<svg xmlns="http://www.w3.org/2000/svg" width="45.187" height="49.86" viewBox="0 0 45.187 49.86">
  <g id="direction-road-sign" transform="translate(0.007)">
    <path id="Path_4259" data-name="Path 4259" d="M34.4,7.166H9.471L2.313,11.561,9.5,16.451H34.4V7.166ZM9.994,21.718h9.256V18.009H9.276A.778.778,0,0,1,8.87,17.9l-8.505-5.7h0a.818.818,0,0,1-.276-.288.773.773,0,0,1,.3-1.051L8.83,5.75a.766.766,0,0,1,.446-.138h9.974V3.267L22.314,0l3.425,3.267V5.608h9.439a.779.779,0,0,1,.779.779V17.23a.779.779,0,0,1-.779.779H25.739v3.709H35.9a.806.806,0,0,1,.446.138l8.437,5.1a.774.774,0,0,1,.3,1.051.785.785,0,0,1-.276.288h0L36.3,34.006a.778.778,0,0,1-.406.114H25.739v9.82h6.274a1.153,1.153,0,0,1,1.148,1.148v3.624a1.153,1.153,0,0,1-1.148,1.148H12.977a1.153,1.153,0,0,1-1.148-1.148V45.952a2.018,2.018,0,0,1,2.013-2.013h5.409v-9.82H9.994a.779.779,0,0,1-.779-.779V22.5a.779.779,0,0,1,.779-.779Zm25.711,1.558H10.774v9.285H35.681l7.183-4.89-7.158-4.395Z" transform="translate(0)" fill="#fa8c00"/>
  </g>
</svg>
