<svg xmlns="http://www.w3.org/2000/svg" width="38" height="50.08" viewBox="0 0 38 50.08">
  <g id="fire-5620" transform="translate(95.636 126.036)">
    <g id="Group_2005" data-name="Group 2005" transform="translate(-95.636 -126.036)">
      <path id="Path_4258" data-name="Path 4258" d="M68.383,34.331c0-6.521-8.066-12-5.017-22.625-3.226,1.65-6.105,3.759-7.476,7.869C56.621,11.065,53.56,4.7,47.529,0c1.6,7.081,1.792,13.81-4.23,18.985-2.13-4.135-5.794-6.138-9.935-7.476,3.448,9.562-2.947,15.908-2.947,22.821H30.4A18.98,18.98,0,0,0,38.768,50.08a12.981,12.981,0,0,1-2.423-7.558h.012c0-4.481,5.542-8.246,3.447-15.545,2.216,1.134,4.2,2.583,5.137,5.407-.5-5.847,6.477-8.917,5.745-13.45,3.309,4.533-1.231,9.488,2.906,13.045,1.463-2.841,3.981-4.217,6.826-5.137-2.369,6.57,2.025,10.93,2.025,15.681h.012a12.981,12.981,0,0,1-2.423,7.558A18.981,18.981,0,0,0,68.4,34.331Z" transform="translate(-30.4)" fill="#fa8c00"/>
    </g>
  </g>
</svg>
