<svg xmlns="http://www.w3.org/2000/svg" width="9.921" height="8.663" viewBox="0 0 9.921 8.663">
  <path id="workplace" d="M2.261,1.469a.081.081,0,0,0-.029.034.124.124,0,0,0-.01.054.471.471,0,0,0,.1.235h0l.2.323a1.745,1.745,0,0,0,.272.359.558.558,0,0,0,.389.157.575.575,0,0,0,.412-.161,1.789,1.789,0,0,0,.281-.384L4.1,1.708a.818.818,0,0,0,.043-.119c.036-.145-.058-.113-.168-.115l-.04,0,.081-.3C3.438,1.263,3,.832,2.39,1.085l.044.36c-.062,0-.114-.017-.172.023ZM6.029.8h3.2a.262.262,0,0,1,.261.261V3.185a.262.262,0,0,1-.261.261H8.037l.2.513H9.527a.4.4,0,0,1,.394.394v.9a.4.4,0,0,1-.394.4h-.2V8.362a.3.3,0,0,1-.3.3H.936a.3.3,0,0,1-.3-.3V5.649H.394A.4.4,0,0,1,0,5.251v-.9a.394.394,0,0,1,.394-.393h.613V3.679c0-.686,1.151-.637,1.549-.9a2.232,2.232,0,0,0,.1-.273l0-.01a2.143,2.143,0,0,1-.242-.323l-.2-.323A.587.587,0,0,1,2.1,1.561a.242.242,0,0,1,.02-.107.2.2,0,0,1,.069-.081.248.248,0,0,1,.048-.025,4.46,4.46,0,0,1-.01-.532A.857.857,0,0,1,2.261.685.85.85,0,0,1,2.826.14C2.952.1,2.906-.008,3.032,0a1.657,1.657,0,0,1,.949.418c.249.291.184.6.175.954h0a.144.144,0,0,1,.107.11.463.463,0,0,1-.055.277h0a.011.011,0,0,1,0,.006l-.231.38a1.857,1.857,0,0,1-.3.4l0,.007.037.054c.04.059.086.126.128.178.318.2,1.438.242,1.457.737l.017.432H7.024l.242-.513H6.029a.262.262,0,0,1-.261-.261V1.063A.262.262,0,0,1,6.029.8ZM.378,4.338a.024.024,0,0,0-.006.016v.9a.022.022,0,0,0,.022.023H9.527a.022.022,0,0,0,.023-.023v-.9a.022.022,0,0,0-.007-.016.023.023,0,0,0-.016-.007C8.68,4.328.4,4.317.38,4.336Zm.629,1.311V8.292H8.962V5.649Zm1.813-2.5a.25.25,0,0,1,0-.367.861.861,0,0,1,.305.161.178.178,0,0,1,.081-.013,1.968,1.968,0,0,1,.333-.171.239.239,0,0,1-.013.4.668.668,0,0,1-.187-.086.264.264,0,0,1-.016.064l.161.631A2.534,2.534,0,0,0,3.77,2.9a2.475,2.475,0,0,1-.161-.219c-.012-.017-.023-.032-.032-.048a.673.673,0,0,1-.392.112.652.652,0,0,1-.427-.153,1.348,1.348,0,0,1-.124.29l-.011.013a3.081,3.081,0,0,0,.305.876l.161-.631a.194.194,0,0,1-.032-.1.717.717,0,0,1-.242.11Z" transform="translate(0 0.003)" fill="#fa8c00" fill-rule="evenodd"/>
</svg>
