<svg id="mountain" xmlns="http://www.w3.org/2000/svg" width="74.671" height="43.448" viewBox="0 0 74.671 43.448">
  <path id="Path_4257" data-name="Path 4257" d="M27,43.449H0l1.774-2.735L26.956,1.835a1.743,1.743,0,0,1,.6-.626,1.77,1.77,0,0,1,2.437.565l9.747,15.581h0l2.048,3.269-1.063,1.641-2.485-3.974c-1.489-.444-3.561,5.408-5.135,5.183-2.169-.31-4.624-7.553-6.174-5.664l-5.293,6.453-5.548-2.4L3.251,41.674h24.9L27,43.449Zm45.345-.134H33.957l1.288-1.987,9.461-14.608.444-.687h0L53.524,13.1a1.256,1.256,0,0,1,.438-.456,1.282,1.282,0,0,1,1.768.413l7.079,11.309h0L73.395,41.279a1,1,0,0,1,.085.134l1.191,1.9ZM36.321,42.027H72.349L61.721,25.042c-1.082-.322-2.583,3.926-3.731,3.761-1.574-.225-3.36-5.481-4.485-4.114l-3.84,4.685-4.029-1.744-9.316,14.4ZM45.812,0a5.068,5.068,0,1,1-5.068,5.068A5.069,5.069,0,0,1,45.812,0Z" fill="#fa8c00"/>
</svg>
