<svg xmlns="http://www.w3.org/2000/svg" width="5.539" height="3.271" viewBox="0 0 5.539 3.271">
  <g id="down-arrow" transform="translate(0 -100.698)">
    <g id="Group_1983" data-name="Group 1983" transform="translate(0 100.698)">
      <path id="Path_4249" data-name="Path 4249" d="M5.45,100.971l-.181-.183a.3.3,0,0,0-.429,0l-2.07,2.07L.7,100.786a.3.3,0,0,0-.429,0l-.181.182a.3.3,0,0,0,0,.428l2.467,2.476a.31.31,0,0,0,.215.1h0a.31.31,0,0,0,.214-.1L5.45,101.4a.306.306,0,0,0,.089-.216A.3.3,0,0,0,5.45,100.971Z" transform="translate(0 -100.698)"/>
    </g>
  </g>
</svg>
