<svg xmlns="http://www.w3.org/2000/svg" width="15.063" height="15.063" viewBox="0 0 15.063 15.063">
  <path id="icons8-twitter-circled" d="M9.531,2a7.531,7.531,0,1,0,7.531,7.531A7.539,7.539,0,0,0,9.531,2Zm3.68,6.066c0,.077.005.156.005.235a5.159,5.159,0,0,1-7.942,4.345,3.667,3.667,0,0,0,2.685-.751,1.817,1.817,0,0,1-1.695-1.26,1.81,1.81,0,0,0,.819-.031A1.815,1.815,0,0,1,5.63,8.825V8.8a1.806,1.806,0,0,0,.822.227A1.817,1.817,0,0,1,5.89,6.607,5.153,5.153,0,0,0,9.629,8.5a1.815,1.815,0,0,1,3.09-1.654,3.636,3.636,0,0,0,1.152-.44,1.819,1.819,0,0,1-.8,1,3.648,3.648,0,0,0,1.042-.286A3.688,3.688,0,0,1,13.211,8.066Z" transform="translate(-2 -2)" fill="#86878f"/>
</svg>
