<svg xmlns="http://www.w3.org/2000/svg" width="15.063" height="15.063" viewBox="0 0 15.063 15.063">
  <path id="icons8-linkedin-circled" d="M10.531,3a7.531,7.531,0,1,0,7.531,7.531A7.532,7.532,0,0,0,10.531,3ZM7.7,6.391a.818.818,0,0,1,.881.822.837.837,0,0,1-.939.822.818.818,0,0,1-.881-.822A.837.837,0,0,1,7.7,6.391Zm.944,7.278H6.766V8.648H8.648Zm6.276,0H13.152V10.925c0-.759-.473-.934-.65-.934s-.768.117-.768.934v2.744H9.9V8.648h1.831v.7a1.663,1.663,0,0,1,1.595-.7c.886,0,1.595.7,1.595,2.277Z" transform="translate(-3 -3)" fill="#86878f"/>
</svg>
