<svg xmlns="http://www.w3.org/2000/svg" width="35.3" height="51.829" viewBox="0 0 35.3 51.829">
  <path id="Path_4256" data-name="Path 4256" d="M3.9,4.764,6.381,9.956a14.689,14.689,0,0,1,4.96-2.906l-2.277-4.8,0-.008h0a1.047,1.047,0,0,0-.612-.536,1.115,1.115,0,0,0-.831.042l-.008,0h0L4.395,3.318a1.088,1.088,0,0,0-.5,1.447ZM32.85,2.984a.852.852,0,0,1,.249.329,14.492,14.492,0,0,1,.89,5.4,28.7,28.7,0,0,1-.8,6.495A17.5,17.5,0,0,1,35.3,23.557V47.765a4.075,4.075,0,0,1-4.061,4.061H4.04A4.053,4.053,0,0,1,0,47.782V23.553a17.517,17.517,0,0,1,2.126-8.376,24.18,24.18,0,0,1-.662-5.765,23.508,23.508,0,0,1,.73-6,.836.836,0,0,1,.283-.434A2.713,2.713,0,0,1,3.665,1.837L6.879.273h0L6.9.26A2.754,2.754,0,0,1,8.971.146a2.711,2.711,0,0,1,1.56,1.375h0l.013.025,2.374,5.006a17.5,17.5,0,0,1,4.728-.645h0a17.527,17.527,0,0,1,4.753.654l2.379-5.01.008-.013,0-.008v0h0A2.725,2.725,0,0,1,26.351.15a2.754,2.754,0,0,1,2.067.114l.025.013h0l3.214,1.565A2.679,2.679,0,0,1,32.85,2.984ZM3.4,13.17a17.515,17.515,0,0,1,1.725-2.02L3.214,7.156c-.067.738-.1,1.5-.1,2.256A24.929,24.929,0,0,0,3.4,13.17Zm28.523.034a26.084,26.084,0,0,0,.413-4.487q0-.955-.089-1.847l-2.054,4.3A18.155,18.155,0,0,1,31.922,13.2ZM22.8,8.412,22.77,8.4a.13.13,0,0,0-.034-.008,1.145,1.145,0,0,1-.24-.084h0a15.837,15.837,0,0,0-4.837-.751h0a15.926,15.926,0,0,0-4.766.73l-.051.025a1.97,1.97,0,0,1-.24.084.13.13,0,0,1-.034.008c-.046.013-.105.03-.173.046a16.1,16.1,0,0,0-6.035,3.8A15.917,15.917,0,0,0,1.649,23.553V47.782a2.4,2.4,0,0,0,.7,1.687,2.375,2.375,0,0,0,1.687.7h27.2a2.419,2.419,0,0,0,2.408-2.408V23.553A16.077,16.077,0,0,0,22.8,8.412Zm6.145,1.544,2.484-5.192a1.078,1.078,0,0,0,.046-.831,1.065,1.065,0,0,0-.54-.612L27.725,1.757h0l-.008,0a1.094,1.094,0,0,0-.831-.042,1.047,1.047,0,0,0-.612.536h0l0,0v0l-2.277,4.8a14.618,14.618,0,0,1,4.955,2.9ZM5.2,22.347a.822.822,0,1,1-1.586-.434,15.13,15.13,0,0,1,6.858-9.456,14.011,14.011,0,0,1,7.57-1.835,15.5,15.5,0,0,1,7.427,2.235,14.3,14.3,0,0,1,6.588,9.076.824.824,0,0,1-1.607.367A12.677,12.677,0,0,0,24.6,14.262a13.825,13.825,0,0,0-6.626-2,12.375,12.375,0,0,0-6.685,1.615,13.515,13.515,0,0,0-6.1,8.469Zm3.484,5.512h18.03a4.133,4.133,0,0,1,4.125,4.125V43.05a4.133,4.133,0,0,1-4.125,4.125H8.679A4.133,4.133,0,0,1,4.555,43.05V31.988a4.14,4.14,0,0,1,4.125-4.129Zm3.433-6.583H23.533a.977.977,0,0,1,.974.974v2.67a.977.977,0,0,1-.974.974H12.112a.977.977,0,0,1-.974-.974V22.25a.977.977,0,0,1,.974-.974Zm-1.9,14.483V38.28a.781.781,0,0,1-.78.78h0a.781.781,0,0,1-.78-.78V35.758H6.2v7.3a2.491,2.491,0,0,0,2.48,2.48h18.03a2.491,2.491,0,0,0,2.48-2.48v-7.3ZM6.2,34.109H29.185V31.988a2.491,2.491,0,0,0-2.48-2.48H8.679a2.491,2.491,0,0,0-2.48,2.48v2.121Z" transform="translate(0 0.002)" fill="#fa8c00"/>
</svg>
