<svg xmlns="http://www.w3.org/2000/svg" width="11.788" height="10.595" viewBox="0 0 11.788 10.595">
  <path id="user" d="M4.42,6.579a1.847,1.847,0,0,1-.156-.192c-.115-.158-.224-.323-.328-.489l-.52-.828a1.444,1.444,0,0,1-.3-.759.552.552,0,0,1,.353-.54,14.326,14.326,0,0,1-.02-1.5,1.89,1.89,0,0,1,.062-.343A1.979,1.979,0,0,1,4.393.807a2.269,2.269,0,0,1,.48-.229C5.175.464,5.029,0,5.362,0A4.346,4.346,0,0,1,7.917,1.181,1.972,1.972,0,0,1,8.427,2.46L8.395,3.822a.384.384,0,0,1,.281.28,1.159,1.159,0,0,1-.146.718h0c0,.011-.011.011-.011.021l-.593.978c-.134.221-.273.446-.43.653-.185.248-.338.2-.179.44,1.135,1.56,4.47.576,4.47,3.678H0c0-3.1,3.336-2.118,4.47-3.678.13-.192.1-.177-.051-.334Z" transform="translate(0 0.005)" fill="#000"/>
</svg>
