<svg xmlns="http://www.w3.org/2000/svg" width="8.212" height="8.212" viewBox="0 0 8.212 8.212">
  <g id="plane" transform="translate(-0.002 0)">
    <path id="Path_4261" data-name="Path 4261" d="M1.113,7.067a1.355,1.355,0,0,1,.4-.827L.075,5.328c-.091-.039-.089-.095-.036-.16l.305-.261a.218.218,0,0,1,.178-.031l1.779.3L3.783,3.572.323,1.231c-.088-.051-.095-.11,0-.177l.5-.4L5.328,1.923,6.661.5A1.479,1.479,0,0,1,7.876.02a.345.345,0,0,1,.305.273,1.422,1.422,0,0,1-.465,1.26L6.291,2.886,7.559,7.4l-.4.5c-.067.09-.126.082-.177,0L4.642,4.432,3.037,5.913l.3,1.779a.217.217,0,0,1-.031.178l-.261.305c-.065.053-.121.055-.16-.036L1.974,6.7a1.353,1.353,0,0,1-.83.4c-.025,0-.03-.009-.03-.033Z" transform="translate(0 0)" fill="#fa8c00" fill-rule="evenodd"/>
  </g>
</svg>
