<svg xmlns="http://www.w3.org/2000/svg" width="43.202" height="47.454" viewBox="0 0 43.202 47.454">
  <path id="search-file" d="M21.916,43.859V28.991a3.607,3.607,0,0,1,3.6-3.591h14.1a3.607,3.607,0,0,1,3.6,3.591V43.859a3.607,3.607,0,0,1-3.6,3.6h-14.1a3.607,3.607,0,0,1-3.6-3.6ZM22.974,4.429l7.565,7.086H22.974V4.429ZM8,26.793a.819.819,0,0,0-.772.853A.8.8,0,0,0,8,28.5h9.492V26.793Zm0,6.113a.819.819,0,0,0-.772.853A.8.8,0,0,0,8,34.613h9.492V32.906ZM8,14.563a.819.819,0,0,0-.772.853A.807.807,0,0,0,8,16.27H16.78a.823.823,0,0,0,.772-.85.811.811,0,0,0-.772-.857ZM8,8.45a.819.819,0,0,0-.772.853A.8.8,0,0,0,8,10.157h4.827a.855.855,0,0,0,0-1.707ZM8,20.68a.855.855,0,0,0,0,1.707H22.846a.823.823,0,0,0,.772-.853.807.807,0,0,0-.772-.853Zm26.755-8.148a1.259,1.259,0,0,0-.915-1.213L22.684.463A1.24,1.24,0,0,0,21.715,0H2.267A2.263,2.263,0,0,0,0,2.263V41.032a2.255,2.255,0,0,0,.664,1.6,2.282,2.282,0,0,0,1.6.66H17.529V40.765h-15V2.533H20.444V12.775a1.271,1.271,0,0,0,1.271,1.271h10.5v8.284h2.537Zm-2.9,17.49A5.638,5.638,0,0,1,37.5,35.664a5.715,5.715,0,0,1-.232,1.61,5.627,5.627,0,0,1-.521,1.2l2.058,2.24a.413.413,0,0,1-.023.575l-1.564,1.429a.409.409,0,0,1-.575-.027l-1.966-2.143a5.441,5.441,0,0,1-1.189.517h0a5.643,5.643,0,1,1-1.618-11.049Zm2.491,3.151a3.549,3.549,0,0,0-1.159-.772h0a3.526,3.526,0,0,0-4.85,3.267,3.576,3.576,0,0,0,.236,1.34A3.529,3.529,0,0,0,35.1,34.3h0a3.549,3.549,0,0,0-.772-1.124Z" transform="translate(0)" fill="#fa8c00" fill-rule="evenodd"/>
</svg>
